{
  "source": "C:\\Users\\Peter\\Desktop\\stuff\\MIUN\\quantitative_research\\video_compression\\videos\\BVI-HD\\BVI-HD_CDVL_videos\\ORIG\\CloudsZoom_1920x1080_60fps.mp4",
  "output": "C:\\Users\\Peter\\Desktop\\stuff\\MIUN\\quantitative_research\\video_compression\\compressed_videos\\BVI-HD\\vp9\\8\\CloudsZoom_1920x1080_60fps_vp9.webm",
  "codec": "vp9",
  "ok": "Input #0, mov,mp4,m4a,3gp,3g2,mj2, from 'C:\\Users\\Peter\\Desktop\\stuff\\MIUN\\quantitative_research\\video_compression\\videos\\BVI-HD\\BVI-HD_CDVL_videos\\ORIG\\CloudsZoom_1920x1080_60fps.mp4':\n  Metadata:\n    major_brand     : isom\n    minor_version   : 512\n    compatible_brands: isomiso2avc1mp41\n    encoder         : Lavf54.28.101\n  Duration: 00:00:05.00, start: 0.000000, bitrate: 32589 kb/s\n  Stream #0:0[0x1](und): Video: h264 (High 4:4:4 Predictive) (avc1 / 0x31637661), yuv420p(progressive), 1920x1080, 32586 kb/s, 60 fps, 60 tbr, 60 tbn (default)\n    Metadata:\n      handler_name    : VideoHandler\n      vendor_id       : [0][0][0][0]\n[out#0/webm @ 00000205c5ef9780] Codec AVOption b:a (set bitrate (in bits/s)) has not been used for any stream. The most likely reason is either wrong type (e.g. a video option with no video streams) or that it is a private option of some decoder which was not actually used for any stream.\nStream mapping:\n  Stream #0:0 -> #0:0 (h264 (native) -> vp9 (libvpx-vp9))\nPress [q] to stop, [?] for help\n[libvpx-vp9 @ 00000205c64b4b40] v1.15.2-100-g40561f514\nOutput #0, webm, to 'C:\\Users\\Peter\\Desktop\\stuff\\MIUN\\quantitative_research\\video_compression\\compressed_videos\\BVI-HD\\vp9\\8\\CloudsZoom_1920x1080_60fps_vp9.webm':\n  Metadata:\n    major_brand     : isom\n    minor_version   : 512\n    compatible_brands: isomiso2avc1mp41\n    encoder         : Lavf62.3.100\n  Stream #0:0(und): Video: vp9, yuv420p(tv, progressive), 1920x1080, q=2-31, 8000 kb/s, 60 fps, 1k tbn (default)\n    Metadata:\n      encoder         : Lavc62.11.100 libvpx-vp9\n      handler_name    : VideoHandler\n      vendor_id       : [0][0][0][0]\n    Side data:\n      cpb: bitrate max/min/avg: 0/0/0 buffer size: 8000000 vbv_delay: N/A\nframe=    7 fps=0.0 q=22.0 size=       1KiB time=00:00:00.11 bitrate=  43.4kbits/s speed=0.225x elapsed=0:00:00.51    \nframe=   15 fps= 14 q=11.0 size=       1KiB time=00:00:00.25 bitrate=  20.3kbits/s speed=0.24x elapsed=0:00:01.04    \nframe=   22 fps= 14 q=9.0 size=       1KiB time=00:00:00.36 bitrate=  13.8kbits/s speed=0.233x elapsed=0:00:01.57    \nframe=   28 fps= 13 q=9.0 size=       1KiB time=00:00:00.46 bitrate=  10.9kbits/s speed=0.221x elapsed=0:00:02.11    \nframe=   34 fps= 13 q=9.0 size=       1KiB time=00:00:00.56 bitrate=   8.9kbits/s speed=0.215x elapsed=0:00:02.63    \nframe=   41 fps= 13 q=8.0 size=       1KiB time=00:00:00.68 bitrate=   7.4kbits/s speed=0.217x elapsed=0:00:03.14    \nframe=   48 fps= 13 q=8.0 size=       1KiB time=00:00:00.80 bitrate=   6.3kbits/s speed=0.218x elapsed=0:00:03.66    \nframe=   55 fps= 13 q=10.0 size=       1KiB time=00:00:00.91 bitrate=   5.5kbits/s speed=0.217x elapsed=0:00:04.21    \nframe=   61 fps= 13 q=3.0 size=       1KiB time=00:00:01.01 bitrate=   5.0kbits/s speed=0.213x elapsed=0:00:04.76    \nframe=   68 fps= 13 q=9.0 size=       1KiB time=00:00:01.13 bitrate=   4.5kbits/s speed=0.214x elapsed=0:00:05.29    \nframe=   75 fps= 13 q=9.0 size=       1KiB time=00:00:01.23 bitrate=   4.1kbits/s speed=0.212x elapsed=0:00:05.82    \nframe=   82 fps= 13 q=9.0 size=       1KiB time=00:00:01.36 bitrate=   3.7kbits/s speed=0.214x elapsed=0:00:06.38    \nframe=   89 fps= 13 q=10.0 size=       1KiB time=00:00:01.48 bitrate=   3.4kbits/s speed=0.215x elapsed=0:00:06.89    \nframe=   96 fps= 13 q=9.0 size=       1KiB time=00:00:01.60 bitrate=   3.2kbits/s speed=0.216x elapsed=0:00:07.41    \nframe=  103 fps= 13 q=10.0 size=       1KiB time=00:00:01.71 bitrate=   2.9kbits/s speed=0.216x elapsed=0:00:07.95    \nframe=  110 fps= 13 q=9.0 size=       1KiB time=00:00:01.83 bitrate=   2.8kbits/s speed=0.216x elapsed=0:00:08.47    \nframe=  118 fps= 13 q=9.0 size=       1KiB time=00:00:01.96 bitrate=   2.6kbits/s speed=0.218x elapsed=0:00:09.01    \nframe=  125 fps= 13 q=10.0 size=       1KiB time=00:00:02.08 bitrate=   2.4kbits/s speed=0.218x elapsed=0:00:09.53    \nframe=  132 fps= 13 q=9.0 size=    1280KiB time=00:00:02.20 bitrate=4766.3kbits/s speed=0.219x elapsed=0:00:10.05    \nframe=  139 fps= 13 q=9.0 size=    1280KiB time=00:00:02.31 bitrate=4526.2kbits/s speed=0.219x elapsed=0:00:10.58    \nframe=  146 fps= 13 q=8.0 size=    1280KiB time=00:00:02.43 bitrate=4309.2kbits/s speed=0.219x elapsed=0:00:11.10    \nframe=  152 fps= 13 q=3.0 size=    1280KiB time=00:00:02.53 bitrate=4139.1kbits/s speed=0.218x elapsed=0:00:11.63    \nframe=  159 fps= 13 q=9.0 size=    1280KiB time=00:00:02.65 bitrate=3956.9kbits/s speed=0.218x elapsed=0:00:12.15    \nframe=  165 fps= 13 q=9.0 size=    1280KiB time=00:00:02.75 bitrate=3813.0kbits/s speed=0.217x elapsed=0:00:12.68    \nframe=  172 fps= 13 q=9.0 size=    1280KiB time=00:00:02.86 bitrate=3657.8kbits/s speed=0.217x elapsed=0:00:13.22    \nframe=  178 fps= 13 q=9.0 size=    1280KiB time=00:00:02.96 bitrate=3534.5kbits/s speed=0.216x elapsed=0:00:13.75    \nframe=  185 fps= 13 q=9.0 size=    1280KiB time=00:00:03.08 bitrate=3400.8kbits/s speed=0.216x elapsed=0:00:14.27    \nframe=  192 fps= 13 q=9.0 size=    1280KiB time=00:00:03.20 bitrate=3276.8kbits/s speed=0.216x elapsed=0:00:14.81    \nframe=  199 fps= 13 q=8.0 size=    1280KiB time=00:00:03.31 bitrate=3161.5kbits/s speed=0.217x elapsed=0:00:15.31    \nframe=  206 fps= 13 q=9.0 size=    1280KiB time=00:00:03.43 bitrate=3054.1kbits/s speed=0.217x elapsed=0:00:15.84    \nframe=  213 fps= 13 q=9.0 size=    1280KiB time=00:00:03.55 bitrate=2953.7kbits/s speed=0.217x elapsed=0:00:16.37    \nframe=  220 fps= 13 q=9.0 size=    1280KiB time=00:00:03.66 bitrate=2859.8kbits/s speed=0.217x elapsed=0:00:16.91    \nframe=  226 fps= 13 q=9.0 size=    1280KiB time=00:00:03.76 bitrate=2783.8kbits/s speed=0.216x elapsed=0:00:17.42    \nframe=  233 fps= 13 q=9.0 size=    1280KiB time=00:00:03.88 bitrate=2700.2kbits/s speed=0.216x elapsed=0:00:17.94    \nframe=  238 fps= 13 q=9.0 size=    1280KiB time=00:00:03.96 bitrate=2643.5kbits/s speed=0.215x elapsed=0:00:18.47    \nframe=  244 fps= 13 q=9.0 size=    1280KiB time=00:00:04.06 bitrate=2578.5kbits/s speed=0.214x elapsed=0:00:19.00    \nframe=  248 fps= 13 q=8.0 size=    1280KiB time=00:00:04.13 bitrate=2536.9kbits/s speed=0.211x elapsed=0:00:19.55    \nframe=  255 fps= 13 q=9.0 size=    1280KiB time=00:00:04.25 bitrate=2467.2kbits/s speed=0.212x elapsed=0:00:20.07    \nframe=  260 fps= 13 q=9.0 size=    2816KiB time=00:00:04.33 bitrate=5323.5kbits/s speed=0.21x elapsed=0:00:20.62    \nframe=  266 fps= 13 q=9.0 size=    2816KiB time=00:00:04.43 bitrate=5203.5kbits/s speed=0.21x elapsed=0:00:21.14    \nframe=  270 fps= 12 q=9.0 size=    2816KiB time=00:00:04.50 bitrate=5126.4kbits/s speed=0.207x elapsed=0:00:21.69    \nframe=  275 fps= 12 q=8.0 size=    2816KiB time=00:00:04.58 bitrate=5033.2kbits/s speed=0.206x elapsed=0:00:22.22    \nframe=  276 fps= 12 q=8.0 size=    2816KiB time=00:00:04.60 bitrate=5014.9kbits/s speed=0.202x elapsed=0:00:22.76    \nframe=  276 fps= 12 q=8.0 size=    2816KiB time=00:00:04.60 bitrate=5014.9kbits/s speed=0.197x elapsed=0:00:23.29    \nframe=  276 fps= 12 q=8.0 size=    2816KiB time=00:00:04.60 bitrate=5014.9kbits/s speed=0.193x elapsed=0:00:23.86    \nframe=  276 fps= 11 q=8.0 size=    2816KiB time=00:00:04.60 bitrate=5014.9kbits/s speed=0.188x elapsed=0:00:24.42    \nframe=  276 fps= 11 q=8.0 size=    2816KiB time=00:00:04.60 bitrate=5014.9kbits/s speed=0.184x elapsed=0:00:25.00    \n[out#0/webm @ 00000205c5ef9780] video:3355KiB audio:0KiB subtitle:0KiB other streams:0KiB global headers:0KiB muxing overhead: 0.082954%\nframe=  300 fps= 12 q=9.0 Lsize=    3358KiB time=00:00:05.00 bitrate=5501.6kbits/s speed=0.197x elapsed=0:00:25.37    \n",
  "seconds": 25.599804401397705,
  "probe_out": {}
}